<svg width="123" height="100" viewBox="0 0 123 100" fill="none" xmlns="http://www.w3.org/2000/svg">
<g filter="url(#filter0_d_80_11314)">
<path d="M6 29.7565C6.02908 21.2624 10.8412 13.7362 18.6628 10.6015C25.9029 7.69795 32.8231 8.79582 38.9873 13.4618C42.0549 15.7875 44.7154 18.6333 47.5358 21.2769C48.1901 21.8836 48.1319 22.3747 47.4922 23.0103C46.7798 23.7037 46.0675 24.3827 45.3551 25.0616C44.6282 25.7406 44.0903 25.7406 43.3488 25.0327C41.2844 23.0681 39.2926 21.0313 37.1264 19.1678C32.576 15.2675 27.3131 13.7362 21.5414 15.672C15.9587 17.5354 12.7894 21.7536 11.9171 27.4741C11.0302 33.2234 12.9348 38.0338 17.7178 41.5008C20.7563 43.711 24.2746 44.231 27.9528 43.7688C32.1543 43.2343 35.4981 41.0819 38.4058 38.1638C44.6136 31.9089 50.7924 25.625 57.0003 19.37C59.2537 17.0876 61.449 14.7185 64.124 12.9128C68.3983 10.0237 73.1232 8.68026 78.2697 9.24364C83.0238 9.76368 87.0072 11.945 90.2784 15.3686C94.4072 19.6878 96.3408 24.8738 96.05 30.811C95.9483 32.7467 95.3813 34.6824 94.9015 36.5893C94.6108 37.7016 93.6222 37.8749 92.7062 37.1238C91.9939 36.5459 91.2815 35.9826 90.54 35.4336C89.8277 34.9136 89.6532 34.538 89.9294 33.7146C92.1974 26.9829 88.4029 19.0233 81.9479 16.192C77.9499 14.4296 73.9664 14.5741 69.9684 16.2353C67.1334 17.4199 64.88 19.37 62.7865 21.5224C57.7417 26.7084 52.726 31.9378 47.6376 37.0949C45.0498 39.724 42.4474 42.3675 39.6416 44.7511C35.0184 48.6803 29.552 50.1971 23.4895 49.547C13.967 48.478 7.71551 41.2119 6.3053 33.2812C6.10177 32.1256 6.10177 30.941 6 29.7565Z" fill="white"/>
</g>
<g filter="url(#filter1_d_80_11314)">
<path fill-rule="evenodd" clip-rule="evenodd" d="M62.8907 37.6314H68.5737H68.5761H74.2583H74.2591H79.9437V43.2911H74.2591H74.2583H68.5761H68.5737H62.8907V37.6314ZM62.8858 43.2913H57.2004V48.9507H51.5174V54.6104H57.2004H57.2028H62.8858V48.951V48.9507V43.2913ZM17.404 48.9507H11.7186V54.6104H17.404V48.9507ZM11.7195 54.6108H6.03407V60.2704V60.2705V65.9301H11.7186V71.5896H17.404V65.9299H11.7195V60.2705V60.2704V54.6108ZM17.4045 71.5897H23.0899V77.2494H17.4045V71.5897ZM34.4574 77.2493H28.7773V77.2494H23.0919V71.5897H28.772V71.5896H34.4574V77.2493ZM40.1469 65.9299H34.4624V71.5896H40.1469H40.1478H45.8323V65.9301V65.9299V60.2704H40.1469V65.9299ZM34.4624 71.5897H40.1478V77.2494H34.4624V71.5897ZM51.5174 54.6108H45.8328V60.2704V60.2705V65.9301H51.5182V60.2705H57.2004V65.9301H62.8858V60.2704H57.2028V54.6108H51.5182H51.5174ZM68.5761 43.2913H62.8907V48.951H68.5761V43.2913ZM62.8907 65.9299H68.5761V71.5896H62.8907V65.9299ZM68.5737 71.5897H74.2583V71.5896H79.9437V77.2493H74.2591V77.2494H68.5737V71.5897ZM85.6312 37.6314H79.9458V43.2911H85.6312V37.6314ZM79.9458 71.5896L85.6288 71.5896V65.9299H91.3142V71.5896L85.6312 71.5896V77.2493H79.9458V71.5896ZM91.3142 43.2913H85.6288V48.951H91.3142V43.2913ZM97 48.9507H91.3146V54.6104H97V48.9507ZM91.3146 54.6108H97V60.2704V60.2705V65.9301H91.3146V60.2705V60.2704V54.6108Z" fill="#DE14FF"/>
</g>
<defs>
<filter id="filter0_d_80_11314" x="0.262702" y="0.133265" width="121.373" height="71.9868" filterUnits="userSpaceOnUse" color-interpolation-filters="sRGB">
<feFlood flood-opacity="0" result="BackgroundImageFix"/>
<feColorMatrix in="SourceAlpha" type="matrix" values="0 0 0 0 0 0 0 0 0 0 0 0 0 0 0 0 0 0 127 0" result="hardAlpha"/>
<feOffset dx="9.90988" dy="6.78045"/>
<feGaussianBlur stdDeviation="7.82359"/>
<feComposite in2="hardAlpha" operator="out"/>
<feColorMatrix type="matrix" values="0 0 0 0 0 0 0 0 0 0 0 0 0 0 0 0 0 0 0.25 0"/>
<feBlend mode="normal" in2="BackgroundImageFix" result="effect1_dropShadow_80_11314"/>
<feBlend mode="normal" in="SourceGraphic" in2="effect1_dropShadow_80_11314" result="shape"/>
</filter>
<filter id="filter1_d_80_11314" x="0.296775" y="28.7647" width="122.26" height="70.9123" filterUnits="userSpaceOnUse" color-interpolation-filters="sRGB">
<feFlood flood-opacity="0" result="BackgroundImageFix"/>
<feColorMatrix in="SourceAlpha" type="matrix" values="0 0 0 0 0 0 0 0 0 0 0 0 0 0 0 0 0 0 127 0" result="hardAlpha"/>
<feOffset dx="9.90988" dy="6.78045"/>
<feGaussianBlur stdDeviation="7.82359"/>
<feComposite in2="hardAlpha" operator="out"/>
<feColorMatrix type="matrix" values="0 0 0 0 0 0 0 0 0 0 0 0 0 0 0 0 0 0 0.25 0"/>
<feBlend mode="normal" in2="BackgroundImageFix" result="effect1_dropShadow_80_11314"/>
<feBlend mode="normal" in="SourceGraphic" in2="effect1_dropShadow_80_11314" result="shape"/>
</filter>
</defs>
</svg>
